<?xml version='1.0' encoding='utf-8'?>
<svg xmlns="http://www.w3.org/2000/svg" version="1.1" id="svg1" width="2400" height="2400" viewBox="0 0 2400 2400">
  <rect x="0" y="0" width="2400" height="2400" fill="#ffffff" id="white-background" /><defs id="defs1" />
  <g id="g1" transform="translate(-23,-3)">
    <path style="fill:#002768;fill-opacity:1;stroke-width:0.965018" d="m 23,2182.0109 v -220.9892 h 60.313631 60.313629 v 160.6755 160.6755 H 304.30277 464.97829 V 2342.6864 2403 H 243.98914 23 Z m 1958.0217,160.6755 v -60.3137 h 160.6755 160.6755 V 2121.6972 1961.0217 H 2362.6864 2423 V 2182.0109 2403 H 2202.0109 1981.0217 Z M 693.68758,2119.5885 c -79.96948,-4.583 -157.9131,-30.3556 -224.77195,-74.3223 -142.68782,-93.8322 -219.28162,-258.6982 -198.29567,-426.8259 12.4555,-99.7866 58.41068,-191.656 131.31388,-262.5108 84.80534,-82.4226 198.48169,-128.3215 317.80922,-128.3215 152.39616,0 294.37644,75.2555 377.78314,200.2412 23.3166,34.9399 39.271,67.4046 52.1676,106.152 45.8076,137.6287 21.2746,288.0029 -66.1387,405.3953 l -9.4067,12.6329 66.4643,77.8195 c 36.5555,42.8007 66.4645,78.0447 66.4645,78.32 0,0.2753 -62.2129,0.5006 -138.2509,0.5006 H 930.57545 l -11.56818,-13.9643 c -7.40549,-8.9394 -12.08906,-13.8252 -13.01571,-13.5779 -0.79614,0.2124 -7.17873,2.772 -14.18354,5.6879 -52.548,21.8745 -115.4598,33.8439 -174.79552,33.256 -9.90953,-0.098 -20.40574,-0.3154 -23.32492,-0.4827 z m 57.34784,-211.7193 c 4.73794,-0.5922 9.40104,-1.3678 10.36245,-1.7235 1.43685,-0.5316 -6.42857,-10.3496 -44.18434,-55.1531 l -45.93237,-54.5065 126.30298,-0.2448 126.30298,-0.2448 5.48631,-9.8879 c 13.73536,-24.7549 22.04226,-48.6121 26.96381,-77.4391 2.87973,-16.8676 3.11972,-51.1673 0.476,-68.0338 -11.826,-75.4483 -55.03636,-136.9434 -122.64242,-174.5392 -24.07217,-13.3867 -50.73289,-22.0522 -84.02969,-27.3122 -10.22145,-1.6147 -50.57468,-1.6147 -60.79614,0 -33.2968,5.26 -59.95752,13.9255 -84.02968,27.3122 -92.50717,51.4433 -140.04131,150.8607 -120.46221,251.9459 9.02905,46.6162 32.47449,89.2625 68.06526,123.808 39.63047,38.4666 90.54349,61.8195 146.07681,67.0029 11.45727,1.0695 39.91808,0.5313 52.04025,-0.9841 z m 645.18918,-183.0357 c 0,-421.9318 -0.4222,-392.0489 5.8516,-410.012 6.9986,-20.0387 19.6555,-37.1745 37.4336,-50.6805 8.6811,-6.595 25.5661,-14.724 37.29,-17.9527 l 9.6501,-2.6575 h 198.3113 c 155.1748,0 200.3053,0.2674 207.4788,1.2291 25.8073,3.4601 43.7462,7.4153 64.8382,14.296 71.4879,23.3207 132.6311,72.0968 170.6985,136.1724 21.6043,36.3646 35.0491,75.4814 41.0639,119.4725 2.4094,17.6223 2.4084,58.6282 0,76.2365 -4.6852,34.2258 -13.081,62.0589 -27.6544,91.6767 -23.0909,46.9279 -59.832,87.1208 -106.2836,116.2685 -12.5401,7.8686 -38.067,20.7638 -49.7764,25.1449 -5.081,1.9009 -8.7534,3.8007 -8.5261,4.4104 0.2196,0.5891 44.412,62.4709 98.2054,137.5151 53.7933,75.0442 98.8055,137.8553 100.0272,139.5803 l 2.2211,3.1363 h -122.0644 -122.0645 l -91.994,-130.7554 -91.994,-130.7555 h -69.7226 -69.7225 v 130.7509 130.76 h -106.6366 -106.6345 z m 475.4389,-73.6501 c 24.1035,-3.2971 49.3293,-17.6553 64.3156,-36.6076 43.126,-54.539 19.2485,-133.5987 -47.0733,-155.8621 -15.7636,-5.2917 -15.415,-5.2796 -152.7574,-5.2858 l -126.6587,-0.01 v 99.3969 99.3968 h 127.3126 c 85.0814,0 129.8166,-0.3425 134.8612,-1.0325 z m -67.7226,-694.41924 c -26.1251,-2.12715 -45.6222,-5.23438 -66.5863,-10.61176 -121.0586,-31.05215 -217.1228,-126.68963 -247.5088,-246.40934 -7.3929,-29.12772 -10.151,-51.93974 -10.151,-83.95657 0,-32.01683 2.7581,-54.82885 10.151,-83.95657 21.876,-86.19037 78.2439,-161.40758 155.8549,-207.97244 152.6256,-91.57192 350.9234,-53.03869 457.7321,88.94654 35.2782,46.89664 56.9958,100.27204 64.9851,159.71385 2.5756,19.16321 3.0745,61.80473 0.9295,79.4568 -9.7153,79.95102 -42.7808,148.45295 -98.5325,204.13044 -28.0433,28.00597 -55.6775,47.66463 -92.2057,65.59419 -40.7943,20.02352 -81.6063,31.10148 -127.8166,34.69443 -11.9064,0.92574 -37.5421,1.12843 -46.8517,0.37043 z M 1849.223,794.7868 c 52.6206,-6.89796 99.7538,-36.46693 129.1961,-81.05097 12.6919,-19.21925 22.554,-43.66878 26.8968,-66.68069 3.1229,-16.54794 3.1229,-45.98936 0,-62.5373 -13.1295,-69.57116 -65.6936,-125.833 -134.0226,-143.45092 -47.505,-12.24861 -98.7262,-4.89376 -140.2113,20.13291 -45.1848,27.25861 -76.3571,71.92887 -86.0554,123.31801 -3.1229,16.54794 -3.1229,45.98936 0,62.5373 14.601,77.36796 77.4445,137.06022 155.5367,147.73741 12.7053,1.73713 35.3847,1.73445 48.6597,-0.006 z M 341.93848,947.28673 c -30.47872,-5.67071 -54.85583,-27.83071 -64.37894,-58.52363 l -2.20731,-7.11413 -0.25191,-297.46682 -0.25191,-297.46683 h 81.55469 81.55468 v 250.4222 250.42219 H 615.0386 792.11942 v 80.57901 80.57901 l -221.71291,-0.087 c -177.73159,-0.0699 -223.05292,-0.33646 -228.46803,-1.34396 z m 504.5076,0.22473 c 0.27068,-0.66345 61.34404,-142.06997 135.7186,-314.23672 C 1056.5392,461.108 1118.982,317.80281 1120.9264,314.81877 c 1.9445,-2.98404 6.6432,-8.46533 10.4416,-12.18065 28.0119,-27.39901 74.4265,-30.19868 103.2122,-6.22563 6.2272,5.18609 14.1867,14.57414 17.5508,20.7009 1.4572,2.6538 63.5179,145.74186 137.9127,317.97346 l 135.2632,313.14837 -90.2719,0.24623 c -49.6496,0.13543 -90.4503,0.0678 -90.6683,-0.15019 -0.218,-0.21803 -35.5902,-81.96936 -78.6047,-181.66962 -43.0145,-99.70028 -78.4838,-181.57074 -78.8205,-181.93435 -0.3367,-0.36363 -36.2172,81.38546 -79.7344,181.66465 l -79.1221,182.32579 h -91.06555 c -72.47153,0 -90.96502,-0.2463 -90.57337,-1.20627 z M 23,223.98914 V 3 H 243.98914 464.97829 V 63.313631 123.62726 H 304.30277 143.62726 V 284.30277 444.97829 H 83.313631 23 Z m 2279.3727,60.31363 V 123.62726 H 2141.6972 1981.0217 V 63.313631 3 H 2202.0109 2423 v 220.98914 220.98915 h -60.3136 -60.3137 z" id="path1" />
  </g>
</svg>